<?xml version="1.0" encoding="UTF-8"?>
<svg xmlns="http://www.w3.org/2000/svg" xmlns:xlink="http://www.w3.org/1999/xlink" width="27pt" height="30pt" viewBox="0 0 27 30" version="1.1">
<g id="surface1">
<path style=" stroke:none;fill-rule:nonzero;fill:rgb(18.039216%,19.215686%,56.862745%);fill-opacity:1;" d="M 5.257812 2.097656 C 5.957031 1.519531 6.671875 0.960938 7.378906 0.394531 C 11.628906 3.398438 15.875 6.40625 20.121094 9.417969 C 20.121094 8.945312 20.121094 8.476562 20.121094 8.003906 C 21.191406 8.003906 22.257812 8.003906 23.328125 8.003906 C 23.328125 9.183594 23.3125 10.367188 23.335938 11.546875 C 24.285156 12.132812 25.261719 12.675781 26.222656 13.246094 C 25.847656 14.230469 25.46875 15.214844 25.09375 16.199219 C 24.5 15.796875 23.917969 15.378906 23.324219 14.980469 C 23.324219 19.222656 23.324219 23.460938 23.324219 27.703125 C 22.257812 27.703125 21.1875 27.699219 20.121094 27.703125 C 20.121094 22.988281 20.117188 18.273438 20.121094 13.558594 C 19.160156 12.496094 18.082031 11.542969 16.988281 10.613281 C 14.722656 8.703125 12.328125 6.941406 9.902344 5.230469 C 9.601562 5.015625 9.28125 4.828125 8.984375 4.609375 C 7.925781 5.789062 6.941406 7.027344 5.980469 8.28125 C 5.339844 9.136719 4.707031 10.003906 4.183594 10.933594 C 3.949219 11.363281 3.710938 11.808594 3.679688 12.304688 C 3.582031 13.980469 3.609375 15.65625 3.574219 17.335938 C 3.5625 20.789062 3.570312 24.246094 3.589844 27.699219 C 3.390625 27.699219 3.191406 27.703125 2.992188 27.703125 C 2.226562 27.699219 1.457031 27.703125 0.691406 27.703125 C 0.6875 22.421875 0.691406 17.140625 0.691406 11.859375 C 0.691406 11.605469 0.648438 11.332031 0.800781 11.105469 C 2.355469 8.152344 4.351562 5.429688 6.667969 3.019531 C 6.199219 2.710938 5.730469 2.398438 5.257812 2.097656 Z M 5.257812 2.097656 "/>
<path style=" stroke:none;fill-rule:nonzero;fill:rgb(18.039216%,19.215686%,56.862745%);fill-opacity:1;" d="M 20.121094 5.386719 C 20.335938 5.382812 20.550781 5.386719 20.769531 5.386719 C 20.769531 5.601562 20.769531 5.8125 20.765625 6.027344 C 20.550781 6.027344 20.335938 6.027344 20.121094 6.027344 C 20.121094 5.8125 20.121094 5.601562 20.121094 5.386719 Z M 20.121094 5.386719 "/>
<path style=" stroke:none;fill-rule:nonzero;fill:rgb(18.039216%,19.215686%,56.862745%);fill-opacity:1;" d="M 20.996094 5.386719 C 21.488281 5.382812 21.980469 5.382812 22.472656 5.386719 C 22.472656 5.601562 22.472656 5.816406 22.46875 6.027344 C 21.984375 6.027344 21.496094 6.023438 21.011719 6.03125 C 20.984375 5.820312 20.992188 5.601562 20.996094 5.386719 Z M 20.996094 5.386719 "/>
<path style=" stroke:none;fill-rule:nonzero;fill:rgb(18.039216%,19.215686%,56.862745%);fill-opacity:1;" d="M 22.679688 5.386719 C 22.894531 5.382812 23.109375 5.382812 23.324219 5.386719 C 23.328125 5.601562 23.328125 5.816406 23.316406 6.03125 C 23.109375 6.027344 22.902344 6.027344 22.695312 6.035156 C 22.667969 5.820312 22.675781 5.601562 22.679688 5.386719 Z M 22.679688 5.386719 "/>
<path style=" stroke:none;fill-rule:nonzero;fill:rgb(18.039216%,19.215686%,56.862745%);fill-opacity:1;" d="M 20.121094 6.25 C 20.613281 6.257812 21.109375 6.234375 21.605469 6.265625 C 21.597656 6.472656 21.597656 6.683594 21.597656 6.890625 C 21.105469 6.894531 20.613281 6.894531 20.121094 6.894531 C 20.121094 6.679688 20.121094 6.464844 20.121094 6.25 Z M 20.121094 6.25 "/>
<path style=" stroke:none;fill-rule:nonzero;fill:rgb(18.039216%,19.215686%,56.862745%);fill-opacity:1;" d="M 21.867188 6.253906 C 22.351562 6.25 22.839844 6.25 23.324219 6.253906 C 23.324219 6.464844 23.324219 6.679688 23.324219 6.894531 C 22.839844 6.894531 22.351562 6.894531 21.867188 6.894531 C 21.863281 6.679688 21.863281 6.464844 21.867188 6.253906 Z M 21.867188 6.253906 "/>
<path style=" stroke:none;fill-rule:nonzero;fill:rgb(18.039216%,19.215686%,56.862745%);fill-opacity:1;" d="M 20.121094 7.117188 C 20.335938 7.117188 20.550781 7.117188 20.769531 7.117188 C 20.769531 7.332031 20.769531 7.546875 20.769531 7.757812 C 20.550781 7.757812 20.335938 7.761719 20.121094 7.757812 C 20.121094 7.546875 20.121094 7.332031 20.121094 7.117188 Z M 20.121094 7.117188 "/>
<path style=" stroke:none;fill-rule:nonzero;fill:rgb(18.039216%,19.215686%,56.862745%);fill-opacity:1;" d="M 21.011719 7.113281 C 21.492188 7.125 21.972656 7.113281 22.449219 7.117188 C 22.453125 7.332031 22.453125 7.542969 22.453125 7.753906 C 21.964844 7.765625 21.480469 7.757812 20.996094 7.757812 C 20.992188 7.542969 20.984375 7.328125 21.011719 7.113281 Z M 21.011719 7.113281 "/>
<path style=" stroke:none;fill-rule:nonzero;fill:rgb(18.039216%,19.215686%,56.862745%);fill-opacity:1;" d="M 22.691406 7.113281 C 22.90625 7.117188 23.121094 7.109375 23.332031 7.136719 C 23.324219 7.34375 23.320312 7.550781 23.324219 7.757812 C 23.109375 7.761719 22.894531 7.761719 22.679688 7.757812 C 22.675781 7.542969 22.667969 7.328125 22.691406 7.113281 Z M 22.691406 7.113281 "/>
<path style=" stroke:none;fill-rule:nonzero;fill:rgb(100%,94.509804%,0%);fill-opacity:1;" d="M 5.980469 8.28125 C 6.941406 7.027344 7.925781 5.789062 8.984375 4.609375 C 9.28125 4.828125 9.601562 5.015625 9.902344 5.230469 C 12.328125 6.941406 14.722656 8.703125 16.988281 10.613281 C 18.082031 11.542969 19.160156 12.496094 20.121094 13.558594 C 20.117188 18.273438 20.121094 22.988281 20.121094 27.703125 C 18.011719 27.699219 15.902344 27.734375 13.792969 27.722656 C 10.195312 27.683594 6.589844 27.707031 2.992188 27.703125 C 3.191406 27.703125 3.390625 27.699219 3.589844 27.699219 C 3.570312 24.246094 3.5625 20.789062 3.574219 17.335938 C 3.609375 15.65625 3.582031 13.980469 3.679688 12.304688 C 3.710938 11.808594 3.949219 11.363281 4.183594 10.933594 C 4.707031 10.003906 5.339844 9.136719 5.980469 8.28125 M 5.597656 13.992188 C 5.597656 15.539062 5.597656 17.082031 5.597656 18.628906 C 7.296875 18.628906 8.992188 18.632812 10.691406 18.625 C 10.675781 17.078125 10.714844 15.527344 10.671875 13.984375 C 8.980469 14.003906 7.289062 13.984375 5.597656 13.992188 M 12.613281 16.3125 C 12.617188 20.109375 12.609375 23.90625 12.621094 27.703125 C 14.367188 27.699219 16.117188 27.703125 17.867188 27.699219 C 17.867188 23.902344 17.875 20.105469 17.863281 16.308594 C 16.113281 16.3125 14.363281 16.304688 12.613281 16.3125 Z M 12.613281 16.3125 "/>
<path style=" stroke:none;fill-rule:nonzero;fill:rgb(4.313725%,67.058824%,92.156863%);fill-opacity:1;" d="M 20.121094 5.121094 C 21.1875 5.117188 22.253906 5.121094 23.320312 5.121094 C 23.375 5.617188 23.3125 6.117188 23.347656 6.617188 C 23.3125 7.078125 23.375 7.539062 23.320312 7.996094 C 22.253906 7.992188 21.1875 7.996094 20.121094 7.996094 C 20.121094 7.933594 20.121094 7.820312 20.121094 7.757812 C 20.335938 7.761719 20.550781 7.757812 20.769531 7.757812 C 20.769531 7.546875 20.769531 7.332031 20.769531 7.117188 C 20.550781 7.117188 20.335938 7.117188 20.121094 7.117188 C 20.121094 7.058594 20.121094 6.949219 20.121094 6.894531 C 20.613281 6.894531 21.105469 6.894531 21.597656 6.890625 C 21.597656 6.683594 21.597656 6.472656 21.605469 6.265625 C 21.109375 6.234375 20.613281 6.257812 20.121094 6.25 C 20.121094 6.195312 20.121094 6.082031 20.121094 6.027344 C 20.335938 6.027344 20.550781 6.027344 20.765625 6.027344 C 20.769531 5.8125 20.769531 5.601562 20.769531 5.386719 C 20.550781 5.386719 20.335938 5.382812 20.121094 5.386719 C 20.121094 5.320312 20.121094 5.1875 20.121094 5.121094 M 20.996094 5.386719 C 20.992188 5.601562 20.984375 5.820312 21.011719 6.03125 C 21.496094 6.023438 21.984375 6.027344 22.46875 6.027344 C 22.472656 5.816406 22.472656 5.601562 22.472656 5.386719 C 21.980469 5.382812 21.488281 5.382812 20.996094 5.386719 M 22.679688 5.386719 C 22.675781 5.601562 22.667969 5.820312 22.695312 6.035156 C 22.902344 6.027344 23.109375 6.027344 23.316406 6.03125 C 23.328125 5.816406 23.328125 5.601562 23.324219 5.386719 C 23.109375 5.382812 22.894531 5.382812 22.679688 5.386719 M 21.867188 6.253906 C 21.863281 6.464844 21.863281 6.679688 21.867188 6.894531 C 22.351562 6.894531 22.839844 6.894531 23.324219 6.894531 C 23.324219 6.679688 23.324219 6.464844 23.324219 6.253906 C 22.839844 6.25 22.351562 6.25 21.867188 6.253906 M 21.011719 7.113281 C 20.984375 7.328125 20.992188 7.542969 20.996094 7.757812 C 21.480469 7.757812 21.964844 7.765625 22.453125 7.753906 C 22.453125 7.542969 22.453125 7.332031 22.449219 7.117188 C 21.972656 7.113281 21.492188 7.125 21.011719 7.113281 M 22.691406 7.113281 C 22.667969 7.328125 22.675781 7.542969 22.679688 7.757812 C 22.894531 7.761719 23.109375 7.761719 23.324219 7.757812 C 23.320312 7.550781 23.324219 7.34375 23.332031 7.136719 C 23.121094 7.109375 22.90625 7.117188 22.691406 7.113281 Z M 22.691406 7.113281 "/>
<path style=" stroke:none;fill-rule:nonzero;fill:rgb(94.117647%,35.294118%,15.686275%);fill-opacity:1;" d="M 5.597656 13.992188 C 7.289062 13.984375 8.980469 14.003906 10.671875 13.984375 C 10.714844 15.527344 10.675781 17.078125 10.691406 18.625 C 8.992188 18.632812 7.296875 18.628906 5.597656 18.628906 C 5.597656 17.082031 5.597656 15.539062 5.597656 13.992188 Z M 5.597656 13.992188 "/>
<path style=" stroke:none;fill-rule:nonzero;fill:rgb(94.117647%,35.294118%,15.686275%);fill-opacity:1;" d="M 12.613281 16.3125 C 14.363281 16.304688 16.113281 16.3125 17.863281 16.308594 C 17.875 20.105469 17.867188 23.902344 17.867188 27.699219 C 16.117188 27.703125 14.367188 27.699219 12.621094 27.703125 C 12.609375 23.90625 12.617188 20.109375 12.613281 16.3125 M 16.570312 21.886719 C 16.335938 21.964844 16.3125 22.332031 16.523438 22.449219 C 16.703125 22.574219 16.972656 22.460938 17.007812 22.25 C 17.085938 22.011719 16.796875 21.765625 16.570312 21.886719 Z M 16.570312 21.886719 "/>
<path style=" stroke:none;fill-rule:nonzero;fill:rgb(13.72549%,12.156863%,12.54902%);fill-opacity:1;" d="M 16.570312 21.886719 C 16.796875 21.765625 17.085938 22.011719 17.007812 22.25 C 16.972656 22.460938 16.703125 22.574219 16.523438 22.449219 C 16.3125 22.332031 16.335938 21.964844 16.570312 21.886719 Z M 16.570312 21.886719 "/>
</g>
</svg>
