<?xml version="1.0" encoding="UTF-8" ?>
<!DOCTYPE svg PUBLIC "-//W3C//DTD SVG 1.1//EN" "http://www.w3.org/Graphics/SVG/1.1/DTD/svg11.dtd">
<svg width="20pt" height="20pt" viewBox="0 0 339 342" version="1.1" xmlns="http://www.w3.org/2000/svg">
<g id="#0194bdff">
<path fill="#0194bd" opacity="1.00" d=" M 1.87 4.75 C 2.49 3.08 4.69 4.06 6.01 3.79 C 29.48 3.86 52.96 3.79 76.43 3.83 C 76.32 6.54 76.25 9.25 76.22 11.97 C 76.22 93.32 76.21 174.68 76.22 256.03 C 76.62 280.35 76.28 304.67 76.43 328.99 C 76.48 331.32 76.32 333.65 75.81 335.93 C 51.06 309.73 26.45 283.39 1.84 257.05 C 1.85 172.95 1.80 88.85 1.87 4.75 Z" />
</g>
<g id="#4dc4d8ff">
<path fill="#4dc4d8" opacity="1.00" d=" M 76.43 3.83 C 76.73 62.21 76.47 120.59 76.57 178.97 C 76.51 206.51 76.68 234.06 76.47 261.60 C 77.62 261.89 78.80 262.08 79.99 262.17 C 118.33 262.16 156.67 262.16 195.01 262.17 C 200.20 262.07 205.43 261.80 210.57 262.37 C 210.46 287.10 210.56 311.83 210.52 336.56 C 165.58 336.63 120.63 336.69 75.69 336.53 C 75.72 336.38 75.78 336.08 75.81 335.93 C 76.32 333.65 76.48 331.32 76.43 328.99 C 76.28 304.67 76.62 280.35 76.22 256.03 C 76.21 174.68 76.22 93.32 76.22 11.97 C 76.25 9.25 76.32 6.54 76.43 3.83 Z" />
</g>
<g id="#c0d860ff">
<path fill="#c0d860" opacity="1.00" d=" M 126.30 3.77 C 168.88 3.75 211.46 3.78 254.04 3.76 C 256.22 3.76 258.43 3.60 260.59 4.08 C 259.99 10.03 260.26 16.01 260.22 21.97 C 260.21 40.81 260.16 59.65 260.24 78.49 C 215.67 78.39 171.09 78.37 126.52 78.49 C 125.26 75.05 126.49 71.48 126.23 67.95 C 125.99 50.64 126.56 33.29 125.91 16.01 C 126.41 11.94 126.06 7.85 126.30 3.77 Z" />
</g>
<g id="#87b618ff">
<path fill="#87b618" opacity="1.00" d=" M 260.22 21.97 C 260.26 16.01 259.99 10.03 260.59 4.08 C 284.01 29.41 307.72 54.48 331.31 79.66 C 332.59 81.29 335.01 82.57 334.63 84.98 C 334.60 168.85 334.66 252.72 334.60 336.60 C 309.83 336.61 285.06 336.61 260.30 336.60 C 260.18 250.56 260.28 164.52 260.24 78.49 C 260.16 59.65 260.21 40.81 260.22 21.97 Z" />
</g>
</svg>
